# xmcd
#
# Track frame offsets:
#	150
#	17222
#	34588
#	51700
#	67698
#	84615
#	101694
#	116370
#	132370
#	150659
#	166503
#	185539
#	201219
#	217755
#	236476
#	249861
#	266432
#	282175
#	297951
#	315831
#	332553
#
# Disc length: 4705 seconds
#
# Revision: 0
# Processed by: cddbd v1.5.2PL0 Copyright (c) Steve Scherf et al.
# Submitted via: EasyCDDAExtractor 16.0.9.1
#
DISCID=18125f15
DTITLE=Various Artist - Viva Charts Vol.13
DYEAR=2001
DGENRE=2001
TTITLE0=Unique - Take Me Higher
TTITLE1=Vengaboys - Take Me To The City
TTITLE2=Scooter - Posse (We Ned You On The Floor)
TTITLE3=It Girls - My Heart it Feels Like... Dub Dub
TTITLE4=Dreamgate - Now We Are Free
TTITLE5=Masterboy - Ride Like The Wind
TTITLE6=Captain Jack - Iko Iko
TTITLE7=Crazy Town - Butterfly
TTITLE8=Atlantis - The Other Side
TTITLE9=Millane Fernandez - Boom Boom
TTITLE10=Gigi D'agostino - I'll Fly With You
TTITLE11=Sylver - Turn The Tide
TTITLE12=Solid Base - I Like It
TTITLE13=DJ RPM - Pussy Pussy
TTITLE14=Antique - Die For You
TTITLE15=Ice - Stay
TTITLE16=Yamboo - Bai, Bai, Bai
TTITLE17=Airheads - Stanley
TTITLE18=Cassandra - Doobi Doobi Doo
TTITLE19=A1 - No More
TTITLE20=Natasha Hagen - Que Sera
EXTD=
EXTT0=
EXTT1=
EXTT2=
EXTT3=
EXTT4=
EXTT5=
EXTT6=
EXTT7=
EXTT8=
EXTT9=
EXTT10=
EXTT11=
EXTT12=
EXTT13=
EXTT14=
EXTT15=
EXTT16=
EXTT17=
EXTT18=
EXTT19=
EXTT20=
PLAYORDER=
